<mxfile host="drawio-plugin" modified="2023-01-09T11:14:28.955Z" agent="5.0 (Macintosh; Intel Mac OS X 10_15_7) AppleWebKit/537.36 (KHTML, like Gecko) Chrome/104.0.5112.102 Safari/537.36" etag="m32BRzYflarW_WJhA1LU" version="20.5.3" type="embed"><diagram id="DWjpSvbVxY2pOprUcE6g" name="Page-1"><mxGraphModel dx="1344" dy="700" grid="1" gridSize="10" guides="1" tooltips="1" connect="1" arrows="1" fold="1" page="1" pageScale="1" pageWidth="827" pageHeight="1169" math="0" shadow="0"><root><mxCell id="0"/><mxCell id="1" parent="0"/><mxCell id="175" value="" style="rounded=0;whiteSpace=wrap;html=1;sketch=1;" parent="1" vertex="1"><mxGeometry x="168" y="290" width="950" height="160" as="geometry"/></mxCell><mxCell id="231" value="" style="rounded=0;whiteSpace=wrap;html=1;sketch=1;" parent="1" vertex="1"><mxGeometry x="168" y="449" width="950" height="160" as="geometry"/></mxCell><mxCell id="129" value="" style="rounded=0;whiteSpace=wrap;html=1;sketch=1;" parent="1" vertex="1"><mxGeometry x="168" y="130" width="950" height="160" as="geometry"/></mxCell><mxCell id="134" value="Domain" style="ellipse;whiteSpace=wrap;html=1;verticalAlign=top;sketch=1;fontFamily=Architects Daughter;fontSource=https%3A%2F%2Ffonts.googleapis.com%2Fcss%3Ffamily%3DArchitects%2BDaughter;strokeColor=#FFD966;fillColor=#FFEB99;" parent="1" vertex="1"><mxGeometry x="536" y="470" width="204" height="135" as="geometry"/></mxCell><mxCell id="138" value="Domain" style="ellipse;whiteSpace=wrap;html=1;verticalAlign=top;sketch=1;fontFamily=Architects Daughter;fontSource=https%3A%2F%2Ffonts.googleapis.com%2Fcss%3Ffamily%3DArchitects%2BDaughter;strokeColor=#FFD966;fillColor=#FFEB99;" parent="1" vertex="1"><mxGeometry x="756" y="479" width="140" height="100" as="geometry"/></mxCell><mxCell id="139" value="" style="group;" parent="1" vertex="1" connectable="0"><mxGeometry x="783" y="509" width="100" height="40" as="geometry"/></mxCell><mxCell id="140" value="domain data" style="rounded=0;whiteSpace=wrap;html=1;fontStyle=1;sketch=1;fontFamily=Architects Daughter;fontSource=https%3A%2F%2Ffonts.googleapis.com%2Fcss%3Ffamily%3DArchitects%2BDaughter;spacingLeft=0;align=center;" parent="139" vertex="1"><mxGeometry width="99.99999999999999" height="40" as="geometry"/></mxCell><mxCell id="147" style="rounded=0;orthogonalLoop=1;jettySize=auto;html=1;dashed=1;entryX=1;entryY=0.25;entryDx=0;entryDy=0;" parent="1" source="140" target="234" edge="1"><mxGeometry relative="1" as="geometry"><mxPoint x="778" y="529" as="sourcePoint"/><mxPoint x="656.1111111111111" y="560.8866634098681" as="targetPoint"/></mxGeometry></mxCell><mxCell id="149" value="Domain" style="ellipse;whiteSpace=wrap;html=1;verticalAlign=top;sketch=1;fontFamily=Architects Daughter;fontSource=https%3A%2F%2Ffonts.googleapis.com%2Fcss%3Ffamily%3DArchitects%2BDaughter;strokeColor=#FFD966;fillColor=#FFEB99;" parent="1" vertex="1"><mxGeometry x="926" y="160" width="140" height="100" as="geometry"/></mxCell><mxCell id="150" value="" style="group;" parent="1" vertex="1" connectable="0"><mxGeometry x="953" y="201" width="100" height="40" as="geometry"/></mxCell><mxCell id="151" value="domain data" style="rounded=0;whiteSpace=wrap;html=1;fontStyle=1;sketch=1;fontFamily=Architects Daughter;fontSource=https%3A%2F%2Ffonts.googleapis.com%2Fcss%3Ffamily%3DArchitects%2BDaughter;spacingLeft=0;align=center;" parent="150" vertex="1"><mxGeometry width="99.99999999999999" height="40" as="geometry"/></mxCell><mxCell id="166" style="rounded=0;orthogonalLoop=1;jettySize=auto;html=1;dashed=1;entryX=0.5;entryY=0;entryDx=0;entryDy=0;" parent="1" source="151" target="237" edge="1"><mxGeometry relative="1" as="geometry"><mxPoint x="647" y="239" as="sourcePoint"/><mxPoint x="1007.67845659164" y="512" as="targetPoint"/></mxGeometry></mxCell><mxCell id="171" value="consumer-aligned" style="text;html=1;strokeColor=none;fillColor=none;align=center;verticalAlign=middle;whiteSpace=wrap;rounded=0;sketch=1;fontFamily=Architects Daughter;fontSource=https%3A%2F%2Ffonts.googleapis.com%2Fcss%3Ffamily%3DArchitects%2BDaughter;direction=east;rotation=-90;" parent="1" vertex="1"><mxGeometry x="130" y="195" width="105" height="30" as="geometry"/></mxCell><mxCell id="172" value="source-aligned" style="text;html=1;strokeColor=none;fillColor=none;align=center;verticalAlign=middle;whiteSpace=wrap;rounded=0;sketch=1;fontFamily=Architects Daughter;fontSource=https%3A%2F%2Ffonts.googleapis.com%2Fcss%3Ffamily%3DArchitects%2BDaughter;direction=east;rotation=-90;" parent="1" vertex="1"><mxGeometry x="130" y="516" width="105" height="30" as="geometry"/></mxCell><mxCell id="176" value="&lt;span style=&quot;font-weight: 700 ; text-align: left&quot;&gt;Domain&lt;/span&gt;" style="ellipse;whiteSpace=wrap;html=1;verticalAlign=top;sketch=1;fontFamily=Architects Daughter;fontSource=https%3A%2F%2Ffonts.googleapis.com%2Fcss%3Ffamily%3DArchitects%2BDaughter;strokeColor=#FFD966;fillColor=#FFEB99;" parent="1" vertex="1"><mxGeometry x="742" y="315" width="140" height="100" as="geometry"/></mxCell><mxCell id="199" value="aggregate" style="text;html=1;strokeColor=none;fillColor=none;align=center;verticalAlign=middle;whiteSpace=wrap;rounded=0;sketch=1;fontFamily=Architects Daughter;fontSource=https%3A%2F%2Ffonts.googleapis.com%2Fcss%3Ffamily%3DArchitects%2BDaughter;direction=east;rotation=-90;" parent="1" vertex="1"><mxGeometry x="130" y="355" width="105" height="30" as="geometry"/></mxCell><mxCell id="178" value="domain data" style="rounded=0;whiteSpace=wrap;html=1;fontStyle=1;sketch=1;fontFamily=Architects Daughter;fontSource=https%3A%2F%2Ffonts.googleapis.com%2Fcss%3Ffamily%3DArchitects%2BDaughter;spacingLeft=0;align=center;" parent="1" vertex="1"><mxGeometry x="769" y="345" width="100" height="40" as="geometry"/></mxCell><mxCell id="203" style="rounded=0;orthogonalLoop=1;jettySize=auto;html=1;dashed=1;" parent="1" source="178" target="169" edge="1"><mxGeometry relative="1" as="geometry"><mxPoint x="511.86428755752536" y="247.96573767800464" as="sourcePoint"/><mxPoint x="632.5" y="355" as="targetPoint"/></mxGeometry></mxCell><mxCell id="210" style="rounded=0;orthogonalLoop=1;jettySize=auto;html=1;dashed=1;exitX=0.75;exitY=1;exitDx=0;exitDy=0;" parent="1" source="178" target="140" edge="1"><mxGeometry relative="1" as="geometry"><mxPoint x="654.4230769230767" y="395" as="sourcePoint"/><mxPoint x="649.5769230769231" y="563" as="targetPoint"/></mxGeometry></mxCell><mxCell id="217" style="rounded=0;orthogonalLoop=1;jettySize=auto;html=1;dashed=1;exitX=0.25;exitY=1;exitDx=0;exitDy=0;" parent="1" source="151" target="178" edge="1"><mxGeometry relative="1" as="geometry"><mxPoint x="1010.6060606060605" y="229" as="sourcePoint"/><mxPoint x="1019.3939393939393" y="518.9999999999998" as="targetPoint"/></mxGeometry></mxCell><mxCell id="169" value="domain data" style="rounded=0;whiteSpace=wrap;html=1;fontStyle=1;sketch=1;fontFamily=Architects Daughter;fontSource=https%3A%2F%2Ffonts.googleapis.com%2Fcss%3Ffamily%3DArchitects%2BDaughter;spacingLeft=0;align=center;" parent="1" vertex="1"><mxGeometry x="600" y="500" width="100" height="40" as="geometry"/></mxCell><mxCell id="232" value="datamesh-architecture.com" style="text;html=1;strokeColor=none;fillColor=none;align=right;verticalAlign=middle;whiteSpace=wrap;rounded=0;sketch=1;fillStyle=hachure;fontFamily=Architects Daughter;fontSource=https%3A%2F%2Ffonts.googleapis.com%2Fcss%3Ffamily%3DArchitects%2BDaughter;fontSize=12;fontColor=#000000;" parent="1" vertex="1"><mxGeometry x="848" y="610" width="270" height="30" as="geometry"/></mxCell><mxCell id="233" value="" style="group;" vertex="1" connectable="0" parent="1"><mxGeometry x="593" y="549" width="100" height="40" as="geometry"/></mxCell><mxCell id="234" value="domain data" style="rounded=0;whiteSpace=wrap;html=1;fontStyle=1;sketch=1;fontFamily=Architects Daughter;fontSource=https%3A%2F%2Ffonts.googleapis.com%2Fcss%3Ffamily%3DArchitects%2BDaughter;spacingLeft=0;align=center;" vertex="1" parent="233"><mxGeometry width="99.99999999999999" height="40" as="geometry"/></mxCell><mxCell id="235" value="Domain" style="ellipse;whiteSpace=wrap;html=1;verticalAlign=top;sketch=1;fontFamily=Architects Daughter;fontSource=https%3A%2F%2Ffonts.googleapis.com%2Fcss%3Ffamily%3DArchitects%2BDaughter;strokeColor=#FFD966;fillColor=#FFEB99;" vertex="1" parent="1"><mxGeometry x="926" y="470" width="140" height="100" as="geometry"/></mxCell><mxCell id="236" value="" style="group;" vertex="1" connectable="0" parent="1"><mxGeometry x="953" y="500" width="100" height="40" as="geometry"/></mxCell><mxCell id="237" value="domain data" style="rounded=0;whiteSpace=wrap;html=1;fontStyle=1;sketch=1;fontFamily=Architects Daughter;fontSource=https%3A%2F%2Ffonts.googleapis.com%2Fcss%3Ffamily%3DArchitects%2BDaughter;spacingLeft=0;align=center;" vertex="1" parent="236"><mxGeometry width="99.99999999999999" height="40" as="geometry"/></mxCell><mxCell id="238" value="Domain" style="ellipse;whiteSpace=wrap;html=1;verticalAlign=top;sketch=1;fontFamily=Architects Daughter;fontSource=https%3A%2F%2Ffonts.googleapis.com%2Fcss%3Ffamily%3DArchitects%2BDaughter;strokeColor=#FFD966;fillColor=#FFEB99;" vertex="1" parent="1"><mxGeometry x="329" y="479.75" width="170" height="98.5" as="geometry"/></mxCell><mxCell id="239" value="" style="group;" vertex="1" connectable="0" parent="1"><mxGeometry x="364" y="522.25" width="100" height="40" as="geometry"/></mxCell><mxCell id="240" value="domain data" style="rounded=0;whiteSpace=wrap;html=1;fontStyle=1;sketch=1;fontFamily=Architects Daughter;fontSource=https%3A%2F%2Ffonts.googleapis.com%2Fcss%3Ffamily%3DArchitects%2BDaughter;spacingLeft=0;align=center;" vertex="1" parent="239"><mxGeometry width="99.99999999999999" height="40" as="geometry"/></mxCell><mxCell id="241" value="Domain" style="ellipse;whiteSpace=wrap;html=1;verticalAlign=top;sketch=1;fontFamily=Architects Daughter;fontSource=https%3A%2F%2Ffonts.googleapis.com%2Fcss%3Ffamily%3DArchitects%2BDaughter;strokeColor=#FFD966;fillColor=#FFEB99;" vertex="1" parent="1"><mxGeometry x="290" y="160" width="140" height="100" as="geometry"/></mxCell><mxCell id="242" value="" style="group;" vertex="1" connectable="0" parent="1"><mxGeometry x="317" y="201" width="100" height="40" as="geometry"/></mxCell><mxCell id="243" value="domain data" style="rounded=0;whiteSpace=wrap;html=1;fontStyle=1;sketch=1;fontFamily=Architects Daughter;fontSource=https%3A%2F%2Ffonts.googleapis.com%2Fcss%3Ffamily%3DArchitects%2BDaughter;spacingLeft=0;align=center;" vertex="1" parent="242"><mxGeometry width="99.99999999999999" height="40" as="geometry"/></mxCell><mxCell id="244" style="rounded=0;orthogonalLoop=1;jettySize=auto;html=1;dashed=1;exitX=0.5;exitY=1;exitDx=0;exitDy=0;entryX=0.5;entryY=0;entryDx=0;entryDy=0;" edge="1" parent="1" source="243" target="240"><mxGeometry relative="1" as="geometry"><mxPoint x="1013" y="251" as="sourcePoint"/><mxPoint x="1013" y="510" as="targetPoint"/></mxGeometry></mxCell></root></mxGraphModel></diagram></mxfile>